<?xml version="1.0" encoding="UTF-8" standalone="no"?>
<!DOCTYPE svg PUBLIC "-//W3C//DTD SVG 1.1//EN" "http://www.w3.org/Graphics/SVG/1.1/DTD/svg11.dtd">

<!-- Created with Vectornator (http://vectornator.io/) -->
<svg height="100%" stroke-miterlimit="10" style="fill-rule:nonzero;clip-rule:evenodd;stroke-linecap:round;stroke-linejoin:round;" version="1.1" viewBox="0 0 5361.67 1241.64" width="100%" xml:space="preserve" xmlns="http://www.w3.org/2000/svg" xmlns:vectornator="http://vectornator.io" xmlns:xlink="http://www.w3.org/1999/xlink">
<metadata>
<vectornator:setting key="IsTimeLapseWatermarkDisabled" value="false"/>
<vectornator:setting key="UndoHistoryDisabled" value="true"/>
<vectornator:setting key="VNDimensionsVisible" value="true"/>
<vectornator:setting key="VNSnapToGuides" value="true"/>
<vectornator:setting key="WDCMYKEnabledKey" value="false"/>
<vectornator:setting key="WDDisplayWhiteBackground" value="false"/>
<vectornator:setting key="WDDynamicGuides" value="false"/>
<vectornator:setting key="WDGuidesVisible" value="true"/>
<vectornator:setting key="WDIsolateActiveLayer" value="false"/>
<vectornator:setting key="WDOutlineMode" value="false"/>
<vectornator:setting key="WDRulersVisible" value="true"/>
<vectornator:setting key="WDSnapToEdges" value="false"/>
<vectornator:setting key="WDSnapToGrid" value="false"/>
<vectornator:setting key="WDSnapToPoints" value="false"/>
<vectornator:setting key="WDUnits" value="Points"/>
</metadata>
<defs>
<linearGradient gradientTransform="matrix(0.720687 0 0 0.720687 -355.397 -58.6974)" gradientUnits="userSpaceOnUse" id="LinearGradient" x1="524.97" x2="2042.68" y1="944.477" y2="944.477">
<stop offset="0.0047464" stop-color="#7b2cbf"/>
<stop offset="0.519436" stop-color="#c77dff"/>
<stop offset="0.981378" stop-color="#e0aaff"/>
</linearGradient>
<filter color-interpolation-filters="sRGB" filterUnits="userSpaceOnUse" height="770.667" id="Filter" width="644.408" x="125.824" y="251.907">
<feDropShadow dx="-11.4204" dy="9.72499" flood-color="#e0aaff" flood-opacity="1" in="SourceGraphic" result="Shadow" stdDeviation="16.3417"/>
</filter>
<filter color-interpolation-filters="sRGB" filterUnits="userSpaceOnUse" height="769.752" id="Filter_2" width="262.38" x="735.904" y="253.443">
<feDropShadow dx="-11.5452" dy="9.5764" flood-color="#e0aaff" flood-opacity="1" in="SourceGraphic" result="Shadow" stdDeviation="16.5"/>
</filter>
<clipPath id="TextBounds">
<rect height="847" width="4131.22" x="1228.49" y="461.011"/>
</clipPath>
<clipPath id="TextBounds_2">
<rect height="847" width="1769.31" x="1230.22" y="-83.2753"/>
</clipPath>
</defs>
<g id="Layer-1" vectornator:layerName="Layer 1">
<path d="M42.6342 329.749C42.6342 329.749 2.14893 508.242 37.2781 904.054C37.2781 904.054 36.9257 915.21 47.6942 928.312C47.6942 928.312 310.975 1120.29 535.098 1217.81C535.098 1217.81 574.21 1237.49 610.064 1217.26C610.064 1217.26 843.941 1109.36 1084.4 934.193C1084.4 934.193 1101.98 917.61 1103.78 883.464C1103.78 883.464 1134.31 459.076 1101.64 343.968C1101.64 343.968 1094.1 319.39 1082.41 313.736C1082.41 313.736 888.105 143.39 604.926 22.8072C604.926 22.8072 562.016 10.2692 527.589 23.9279C527.589 23.9279 311.391 134.383 309.513 135.852C308.936 136.304 121.969 246.766 42.6342 329.749Z" fill="url(#LinearGradient)" fill-rule="evenodd" opacity="1" stroke="none"/>
<path d="M169.928 408.879L170.235 857.115L358.811 980.165L359.357 737.445L748.969 737.95L748.969 523.704L364.987 523.219L362.332 274.865L169.928 408.879Z" fill="#10002b" fill-rule="evenodd" filter="url(#Filter)" stroke="none" vectornator:shadowAngle="2.4362" vectornator:shadowColor="#e0aaff" vectornator:shadowOffset="15" vectornator:shadowOpacity="1" vectornator:shadowRadius="32.6833"/>
<path d="M781.451 276.867L780.449 980.619L974.047 856.114L976.829 406.606L781.451 276.867Z" fill="#10002b" fill-rule="evenodd" filter="url(#Filter_2)" stroke="none" vectornator:shadowAngle="2.44914" vectornator:shadowColor="#e0aaff" vectornator:shadowOffset="15" vectornator:shadowOpacity="1" vectornator:shadowRadius="33"/>
<path d="M781.451 276.855L977.175 406.749L781.278 400.826" fill="#5a189a" fill-rule="evenodd" opacity="1" stroke="none"/>
<g fill="#e0aaff" opacity="1" stroke="none">
<path clip-path="url(#TextBounds)" d="M1273.94 691.519L1406.65 691.519L1406.65 1015.25L1613.78 1015.25L1613.78 1121.01L1273.94 1121.01L1273.94 691.519Z" fill-rule="evenodd"/>
<path clip-path="url(#TextBounds)" d="M1938.39 1050.11L1787.22 1050.11L1766.42 1121.01L1630.77 1121.01L1792.2 691.519L1936.93 691.519L2098.35 1121.01L1959.48 1121.01L1938.39 1050.11ZM1910.56 957.241L1863.1 802.847L1815.93 957.241L1910.56 957.241Z" fill-rule="evenodd"/>
<path clip-path="url(#TextBounds)" d="M2399.82 691.519L2532.24 691.519L2532.24 947.573C2532.24 972.964 2528.28 996.939 2520.37 1019.5C2512.46 1042.06 2500.06 1061.78 2483.17 1078.68C2466.27 1095.57 2448.55 1107.44 2429.99 1114.27C2404.21 1123.84 2373.25 1128.63 2337.12 1128.63C2316.22 1128.63 2293.42 1127.16 2268.71 1124.23C2244.01 1121.3 2223.35 1115.49 2206.75 1106.8C2190.15 1098.11 2174.96 1085.76 2161.19 1069.74C2147.42 1053.73 2138 1037.22 2132.92 1020.23C2124.72 992.886 2120.62 968.667 2120.62 947.573L2120.62 691.519L2253.04 691.519L2253.04 953.726C2253.04 977.163 2259.53 995.474 2272.52 1008.66C2285.51 1021.84 2303.53 1028.43 2326.57 1028.43C2349.43 1028.43 2367.35 1021.94 2380.33 1008.95C2393.32 995.962 2399.82 977.554 2399.82 953.726L2399.82 691.519Z" fill-rule="evenodd"/>
<path clip-path="url(#TextBounds)" d="M2621.01 691.519L2744.93 691.519L2906.65 929.116L2906.65 691.519L3031.75 691.519L3031.75 1121.01L2906.65 1121.01L2745.81 885.171L2745.81 1121.01L2621.01 1121.01L2621.01 691.519Z" fill-rule="evenodd"/>
<path clip-path="url(#TextBounds)" d="M3405.87 945.523L3522.18 980.679C3514.37 1013.3 3502.06 1040.54 3485.27 1062.42C3468.47 1084.29 3447.62 1100.8 3422.72 1111.93C3397.81 1123.06 3366.12 1128.63 3327.65 1128.63C3280.97 1128.63 3242.83 1121.84 3213.24 1108.27C3183.65 1094.69 3158.12 1070.82 3136.63 1036.64C3115.15 1002.46 3104.41 958.706 3104.41 905.386C3104.41 834.292 3123.3 779.653 3161.1 741.47C3198.89 703.286 3252.36 684.194 3321.5 684.194C3375.6 684.194 3418.13 695.132 3449.08 717.007C3480.04 738.882 3503.04 772.476 3518.08 817.788L3400.89 843.862C3396.79 830.777 3392.49 821.206 3388 815.152C3380.58 804.995 3371.5 797.183 3360.75 791.714C3350.01 786.245 3338 783.511 3324.72 783.511C3294.64 783.511 3271.59 795.62 3255.58 819.839C3243.47 837.808 3237.41 866.03 3237.41 904.507C3237.41 952.163 3244.64 984.829 3259.09 1002.51C3273.55 1020.18 3293.86 1029.02 3320.03 1029.02C3345.42 1029.02 3364.61 1021.89 3377.6 1007.63C3390.59 993.374 3400.01 972.671 3405.87 945.523Z" fill-rule="evenodd"/>
<path clip-path="url(#TextBounds)" d="M3587.22 691.519L3719.93 691.519L3719.93 841.812L3864.95 841.812L3864.95 691.519L3998.25 691.519L3998.25 1121.01L3864.95 1121.01L3864.95 947.28L3719.93 947.28L3719.93 1121.01L3587.22 1121.01L3587.22 691.519Z" fill-rule="evenodd"/>
<path clip-path="url(#TextBounds)" d="M4085.85 691.519L4306.46 691.519C4354.5 691.519 4390.49 702.944 4414.42 725.796C4438.34 748.648 4450.3 781.167 4450.3 823.355C4450.3 866.714 4437.27 900.601 4411.19 925.015C4385.12 949.429 4345.32 961.636 4291.81 961.636L4219.15 961.636L4219.15 1121.01L4085.85 1121.01L4085.85 691.519ZM4219.15 874.624L4251.67 874.624C4277.26 874.624 4295.23 870.181 4305.58 861.294C4315.93 852.407 4321.11 841.03 4321.11 827.163C4321.11 813.687 4316.61 802.261 4307.63 792.886C4298.64 783.511 4281.75 778.823 4256.94 778.823L4219.15 778.823L4219.15 874.624Z" fill-rule="evenodd"/>
<path clip-path="url(#TextBounds)" d="M4733.02 1050.11L4581.85 1050.11L4561.05 1121.01L4425.4 1121.01L4586.83 691.519L4731.55 691.519L4892.98 1121.01L4754.11 1121.01L4733.02 1050.11ZM4705.19 957.241L4657.73 802.847L4610.56 957.241L4705.19 957.241Z" fill-rule="evenodd"/>
<path clip-path="url(#TextBounds)" d="M4937.22 691.519L5134.39 691.519C5173.25 691.519 5204.65 696.792 5228.58 707.339C5252.5 717.886 5272.28 733.023 5287.9 752.749C5303.53 772.476 5314.86 795.425 5321.89 821.597C5328.92 847.769 5332.43 875.503 5332.43 904.8C5332.43 950.698 5327.21 986.294 5316.76 1011.59C5306.31 1036.88 5291.81 1058.07 5273.25 1075.16C5254.7 1092.25 5234.78 1103.63 5213.49 1109.29C5184.39 1117.1 5158.02 1121.01 5134.39 1121.01L4937.22 1121.01L4937.22 691.519ZM5069.93 788.784L5069.93 1023.45L5102.45 1023.45C5130.19 1023.45 5149.91 1020.38 5161.63 1014.22C5173.35 1008.07 5182.53 997.329 5189.17 981.997C5195.81 966.665 5199.13 941.812 5199.13 907.437C5199.13 861.929 5191.71 830.777 5176.87 813.98C5162.02 797.183 5137.41 788.784 5103.04 788.784L5069.93 788.784Z" fill-rule="evenodd"/>
</g>
<g fill="#e0aaff" opacity="1" stroke="none">
<path clip-path="url(#TextBounds_2)" d="M1276.25 147.233L1408.97 147.233L1408.97 297.526L1553.99 297.526L1553.99 147.233L1687.29 147.233L1687.29 576.725L1553.99 576.725L1553.99 402.994L1408.97 402.994L1408.97 576.725L1276.25 576.725L1276.25 147.233Z" fill-rule="evenodd"/>
<path clip-path="url(#TextBounds_2)" d="M2039.73 505.826L1888.56 505.826L1867.76 576.725L1732.11 576.725L1893.54 147.233L2038.27 147.233L2199.69 576.725L2060.82 576.725L2039.73 505.826ZM2011.9 412.955L1964.44 258.561L1917.27 412.955L2011.9 412.955Z" fill-rule="evenodd"/>
<path clip-path="url(#TextBounds_2)" d="M2240.71 147.233L2415.32 147.233L2482.7 408.561L2549.79 147.233L2723.81 147.233L2723.81 576.725L2615.41 576.725L2615.41 249.186L2531.33 576.725L2433.19 576.725L2349.4 249.186L2349.4 576.725L2240.71 576.725L2240.71 147.233Z" fill-rule="evenodd"/>
<path clip-path="url(#TextBounds_2)" d="M2813.75 147.233L2946.76 147.233L2946.76 576.725L2813.75 576.725L2813.75 147.233Z" fill-rule="evenodd"/>
</g>
</g>
</svg>
