<?xml version="1.0" encoding="UTF-8" standalone="no"?>
<!DOCTYPE svg PUBLIC "-//W3C//DTD SVG 1.1//EN" "http://www.w3.org/Graphics/SVG/1.1/DTD/svg11.dtd">

<!-- Created with Vectornator (http://vectornator.io/) -->
<svg height="100%" stroke-miterlimit="10" style="fill-rule:nonzero;clip-rule:evenodd;stroke-linecap:round;stroke-linejoin:round;" version="1.1" viewBox="0 0 512 172.976" width="100%" xml:space="preserve" xmlns="http://www.w3.org/2000/svg" xmlns:vectornator="http://vectornator.io" xmlns:xlink="http://www.w3.org/1999/xlink">
<metadata>
<vectornator:setting key="IsTimeLapseWatermarkDisabled" value="false"/>
<vectornator:setting key="UndoHistoryDisabled" value="true"/>
<vectornator:setting key="VNDimensionsVisible" value="true"/>
<vectornator:setting key="VNSnapToGuides" value="true"/>
<vectornator:setting key="WDCMYKEnabledKey" value="false"/>
<vectornator:setting key="WDDisplayWhiteBackground" value="false"/>
<vectornator:setting key="WDDynamicGuides" value="false"/>
<vectornator:setting key="WDGuidesVisible" value="true"/>
<vectornator:setting key="WDIsolateActiveLayer" value="false"/>
<vectornator:setting key="WDOutlineMode" value="false"/>
<vectornator:setting key="WDRulersVisible" value="true"/>
<vectornator:setting key="WDSnapToEdges" value="false"/>
<vectornator:setting key="WDSnapToGrid" value="false"/>
<vectornator:setting key="WDSnapToPoints" value="false"/>
<vectornator:setting key="WDUnits" value="Points"/>
</metadata>
<defs>
<linearGradient gradientTransform="matrix(0.091616 0 0 0.091616 -45.9032 1.83001)" gradientUnits="userSpaceOnUse" id="LinearGradient" x1="524.97" x2="2042.68" y1="944.477" y2="944.477">
<stop offset="0.0047464" stop-color="#7b2cbf"/>
<stop offset="0.519436" stop-color="#c77dff"/>
<stop offset="0.981378" stop-color="#e0aaff"/>
</linearGradient>
<filter color-interpolation-filters="sRGB" filterUnits="userSpaceOnUse" height="111.66" id="Filter" width="95.6095" x="7.59365" y="35.1785">
<feDropShadow dx="-2.28407" dy="1.945" flood-color="#e0aaff" flood-opacity="1" in="SourceGraphic" result="Shadow" stdDeviation="5.5"/>
</filter>
<filter color-interpolation-filters="sRGB" filterUnits="userSpaceOnUse" height="110.973" id="Filter_2" width="46.474" x="85.4252" y="35.6485">
<feDropShadow dx="-2.30905" dy="1.91528" flood-color="#e0aaff" flood-opacity="1" in="SourceGraphic" result="Shadow" stdDeviation="5.37738"/>
</filter>
<path d="M123.51 0.622865L556.075 0.622865L556.075 0.622865L556.075 218.02L556.075 218.02L123.51 218.02L123.51 218.02L123.51 0.622865L123.51 0.622865Z" fill-rule="evenodd" id="Fill"/>
<path d="M123.51 0.622865L556.075 0.622865L556.075 0.622865L556.075 218.02L556.075 218.02L123.51 218.02L123.51 218.02L123.51 0.622865L123.51 0.622865Z" fill-rule="evenodd" id="Fill_2"/>
<path d="M123.51 0.622865L556.075 0.622865L556.075 0.622865L556.075 218.02L556.075 218.02L123.51 218.02L123.51 218.02L123.51 0.622865L123.51 0.622865Z" fill-rule="evenodd" id="Fill_3"/>
<path d="M123.51 0.622865L556.075 0.622865L556.075 0.622865L556.075 218.02L556.075 218.02L123.51 218.02L123.51 218.02L123.51 0.622865L123.51 0.622865Z" fill-rule="evenodd" id="Fill_4"/>
</defs>
<clipPath id="ArtboardFrame">
<rect height="172.976" width="512" x="0" y="0"/>
</clipPath>
<g clip-path="url(#ArtboardFrame)" id="Layer-1" vectornator:layerName="Layer 1">
<path d="M4.69573 51.2105C4.69573 51.2105-0.450879 73.9011 4.01485 124.218C4.01485 124.218 3.97005 125.636 5.33898 127.302C5.33898 127.302 38.8081 151.707 67.2993 164.104C67.2993 164.104 72.2713 166.605 76.8292 164.034C76.8292 164.034 106.56 150.317 137.128 128.049C137.128 128.049 139.363 125.941 139.592 121.6C139.592 121.6 143.473 67.651 139.32 53.0181C139.32 53.0181 138.361 49.8937 136.875 49.1749C136.875 49.1749 112.175 27.52 76.176 12.1911C76.176 12.1911 70.7212 10.5973 66.3447 12.3336C66.3447 12.3336 38.8609 26.375 38.6222 26.5617C38.5488 26.6192 14.781 40.6615 4.69573 51.2105Z" fill="url(#LinearGradient)" fill-rule="evenodd" opacity="1" stroke="none"/>
<path d="M20.8777 61.2698L20.9167 118.251L44.8891 133.893L44.9585 103.038L94.4872 103.102L94.4872 75.8667L45.6742 75.805L45.3367 44.2335L20.8777 61.2698Z" fill="#10002b" fill-rule="evenodd" filter="url(#Filter)" stroke="none" vectornator:shadowAngle="2.4362" vectornator:shadowColor="#e0aaff" vectornator:shadowOffset="3" vectornator:shadowOpacity="1" vectornator:shadowRadius="11"/>
<path d="M98.6164 44.488L98.489 133.951L123.1 118.124L123.453 60.9808L98.6164 44.488Z" fill="#10002b" fill-rule="evenodd" filter="url(#Filter_2)" stroke="none" vectornator:shadowAngle="2.44914" vectornator:shadowColor="#e0aaff" vectornator:shadowOffset="3" vectornator:shadowOpacity="1" vectornator:shadowRadius="10.7548"/>
<path d="M98.6164 44.4865L123.497 60.999L98.5944 60.2461" fill="#5a189a" fill-rule="evenodd" opacity="1" stroke="none"/>
<g opacity="1">
<g opacity="1" vectornator:mask="#Fill">
<clipPath id="ClipPath">
<use overflow="#visible" xlink:href="#Fill"/>
</clipPath>
<g clip-path="url(#ClipPath)">
<path d="M221.632 134.102L246.548 134.102L246.548 44.4804L221.632 44.4804L221.632 78.168L191.25 78.168L191.25 44.4804L166.334 44.4804L166.334 134.102L191.25 134.102L191.25 98.1263L221.632 98.1263L221.632 134.102Z" fill="#e0aaff" fill-rule="evenodd" opacity="1" stroke="none"/>
</g>
</g>
<g opacity="1" vectornator:mask="#Fill_2">
<clipPath id="ClipPath_2">
<use overflow="#visible" xlink:href="#Fill_2"/>
</clipPath>
<g clip-path="url(#ClipPath_2)">
<path d="M322.314 134.102L348.628 134.102L316.085 44.4804L287.355 44.4804L254.684 134.102L280.871 134.102L285.702 119.483L317.483 119.483L322.314 134.102ZM311.254 100.415L292.058 100.415L301.592 71.4305L311.254 100.415Z" fill="#e0aaff" fill-rule="evenodd" opacity="1" stroke="none"/>
</g>
</g>
<g opacity="1" vectornator:mask="#Fill_3">
<clipPath id="ClipPath_3">
<use overflow="#visible" xlink:href="#Fill_3"/>
</clipPath>
<g clip-path="url(#ClipPath_3)">
<path d="M356.764 134.102L381.68 134.102L381.68 84.2699L398.715 134.102L419.563 134.102L436.47 84.6513L436.47 134.102L461.386 134.102L461.386 44.4804L431.385 44.4804L409.393 102.703L386.892 44.4804L356.764 44.4804L356.764 134.102Z" fill="#e0aaff" fill-rule="evenodd" opacity="1" stroke="none"/>
</g>
</g>
<g opacity="1" vectornator:mask="#Fill_4">
<clipPath id="ClipPath_4">
<use overflow="#visible" xlink:href="#Fill_4"/>
</clipPath>
<g clip-path="url(#ClipPath_4)">
<path d="M475.624 134.102L500.54 134.102L500.54 44.4804L475.624 44.4804L475.624 134.102Z" fill="#e0aaff" fill-rule="evenodd" opacity="1" stroke="none"/>
</g>
</g>
</g>
</g>
</svg>
